<?xml version="1.0" encoding="utf-8"?>
<!-- Generator: Adobe Illustrator 16.0.0, SVG Export Plug-In . SVG Version: 6.00 Build 0)  -->
<!DOCTYPE svg PUBLIC "-//W3C//DTD SVG 1.1//EN" "http://www.w3.org/Graphics/SVG/1.1/DTD/svg11.dtd">
<svg version="1.1" id="Layer_1" xmlns="http://www.w3.org/2000/svg" xmlns:xlink="http://www.w3.org/1999/xlink" x="0px" y="0px"
	 width="483.959px" height="79.969px" viewBox="0 0 483.959 79.969" enable-background="new 0 0 483.959 79.969"
	 xml:space="preserve">
<path opacity="0.25" fill="#003354" d="M120.159,48.538c-1.296,0.309-2.249,1.101-2.121,1.786c0.134,0.671,1.289,0.966,2.591,0.658
	c1.302-0.302,2.242-1.101,2.114-1.779C122.616,48.531,121.454,48.229,120.159,48.538z"/>
<path fill="#003354" d="M111.051,32.538c-2.425,1.567-2.368,5.563,0.471,6.761c3.391,1.427,6.637-0.769,5.579-3.377
	c2.411,1.188,2.796,5.557,2.676,8.778c-0.024,0.311,0.12,0.331,0.211,0.021c0.588-1.903,1.781-9.36,5.357-11.44
	c-1.009,1.462,0.707,3.172,2.661,2.478c1.895-0.668,3.514-4.734,1.079-5.986l0.004-0.014c1.388-0.335,2.422-0.839,3.229-1.728
	c3.31-3.62,2.275-11.598-4.736-11.241c-1.451,0.068-2.862,0.358-3.746,1.001c-2.993-5.328-9.87-6.129-13.963-4.11
	c-4.376,2.167-6.915,9.794-4.193,15.058C106.466,30.237,109.307,32.148,111.051,32.538"/>
<g>
	<path fill="#003354" d="M477.182,12.977c3.635,0,6.523-2.883,6.523-6.492c0-3.614-2.889-6.484-6.523-6.484
		c-3.643,0-6.523,2.871-6.523,6.484C470.658,10.094,473.539,12.977,477.182,12.977 M477.182,0.988c2.977,0,5.52,2.429,5.52,5.496
		c0,3.057-2.543,5.484-5.52,5.484s-5.533-2.428-5.533-5.484C471.648,3.417,474.205,0.988,477.182,0.988"/>
	<path fill="#003354" d="M477.447,10.164c1.492,0,2.842-0.95,3.041-2.516h-1.008c-0.238,0.948-0.938,1.513-2.033,1.513
		c-1.664,0-2.631-1.227-2.631-2.757c0-1.305,0.795-2.714,2.6-2.714c1.092,0,1.863,0.548,2.064,1.463h1.008
		c-0.297-1.547-1.525-2.469-3.051-2.469c-2.252,0-3.621,1.602-3.621,3.747C473.816,8.495,475.25,10.164,477.447,10.164"/>
	<polygon fill="#003354" points="464.355,69.807 464.355,41.827 464.355,16.336 457.717,16.336 457.717,40.462 457.717,75.988 
		483.959,75.988 483.959,69.807 	"/>
	<path fill="#003354" d="M338.479,46v6.167h17.719c0,11.072-10.914,18.671-21.277,18.671c-6.248,0-12.578-3.238-16.93-7.599
		c-4.43-4.5-6.961-10.518-6.961-16.844c0-3.473,0.725-6.82,2.023-9.861c3.734-8.749,12.256-15.06,22.34-15.06
		c8.783,0,15.51,4.189,20.488,11.239l4.826-4.508c-6.332-8.233-14.789-12.895-25.234-12.895c-14.012,0-25.863,9.28-29.742,21.978
		c-0.871,2.859-1.346,5.889-1.346,9.029c0,16.771,13.924,30.696,30.691,30.696c8.307,0,16.607-3.642,22.08-9.972
		c5.447-6.328,6.318-12.969,6.162-21.041H338.479z"/>
	<polygon fill="#003354" points="366.967,33.372 366.967,75.988 373.605,75.988 373.605,33.312 373.605,16.336 366.967,16.336 	"/>
	<polygon fill="#003354" points="412.096,16.336 376.498,16.336 376.498,22.508 390.891,22.508 390.891,33.52 390.891,75.988 
		397.539,75.988 397.539,33.752 397.539,22.508 412.096,22.508 	"/>
	<path fill="#003354" d="M428.643,13.495l-9.539,21.642l-17.994,40.852h7.287l7.195-16.933h25.469l7.039,16.933h7.359l-16.57-38.621
		L428.643,13.495z M418.277,52.884l7.316-17.125l2.891-6.763l3.102,7.431l6.867,16.458H418.277z"/>
	<polygon fill="#003354" points="294.803,38.559 294.803,75.988 301.449,75.988 301.449,37.765 301.449,16.335 294.803,16.335 	"/>
	<path fill="#003354" d="M281.682,23.531c-7.041-6.008-14.32-7.2-23.26-7.2h-11.236v29.52v30.137h11.078
		c9.336,0,16.447-1.198,23.568-7.52c6.572-5.851,9.736-13.53,9.736-22.236c0-2.468-0.258-4.869-0.748-7.169
		C289.547,33.086,286.584,27.755,281.682,23.531 M277.486,63.643c-5.463,5.142-11.549,6.162-18.832,6.162h-4.826V44.669V22.508
		h4.826c7.041,0,13.057,0.95,18.514,5.771c3.547,3.104,5.887,7.198,6.998,11.662c0.506,2.008,0.754,4.107,0.754,6.212
		C284.92,52.799,282.391,59.056,277.486,63.643"/>
	<path fill="#003354" d="M215.463,26.308c-0.784,1.816-1.343,3.714-1.977,5.607h-0.628l-6.65-15.584h-24.522l3.353,5.478
		c-4.444-4.351-11.876-5.478-19.213-5.478H140.59v35.942c-0.561-2.679-1.94-4.909-4.436-6.056
		c-4.071-1.865-10.438-0.509-13.904,0.363c-14.16,3.562-34.785-0.363-38.131-16.462c-0.2-0.932-0.243-3.361,0.739-3.682
		c0.565-0.193,9.146,4.277,9.995,2.063c0.469-1.224-5.673-4.883-6.112-5.179c0,0-0.18-0.356,0.052-0.558
		c1.664-1.425,8.242-7.262,5.387-7.424c-10.712-0.615-17.676,14.548-18.698,28.035l-4.447-27.043H48.962l-6.719,23.424
		c-0.713,2.527-1.11,5.291-1.502,7.904h-0.557l-8.227-31.328H9.651l-4.66,28.776L0,75.984h20.959l2.389-24.032l0.148-1.444
		c0.238-2.374,0.392-4.82,0.551-7.194h0.714c0.155,2.526,0.708,4.901,1.341,7.433l0.677,2.2l7.085,23.037l12.648,0.004l5.671-17.585
		l2.952-9.162c0.636-1.897,1.031-3.956,1.427-5.927h0.393l1.437,15.998l1.493,16.677h20.958L78.44,61.346l-0.159-0.924
		c0.159,0.323,0.327,0.631,0.497,0.948c4.517,8.727,13.417,15.263,26.334,17.887c6.345,1.291,12.492,0.646,16.954-0.504
		c9.213-2.361,15.271-8.392,17.891-17.276c0.031-0.106,0.057-0.221,0.088-0.332c0.225-0.804,0.406-1.608,0.547-2.426v2.389v14.881
		h29.507c10.442,0,21.835-4.201,21.835-16.461c0-1.394-0.167-2.699-0.466-3.91c-1.246-4.978-4.92-8.405-10.137-10.254v-0.471
		c5.22-1.665,7.835-6.804,7.835-12.029c0-2.141-0.291-4.022-0.817-5.661l14.143,23.067v3.667v22.052h21.204V50.294v-0.025
		l20.403-33.938h-24.357L215.463,26.308z M119.827,51.649c-1.302,0.31-2.462,0.009-2.598-0.66c-0.128-0.689,0.827-1.479,2.128-1.789
		c1.295-0.309,2.459-0.007,2.589,0.663C122.074,50.542,121.13,51.339,119.827,51.649 M160.688,30.728h1.5
		c3.164,0,7.197-0.315,7.197,4.116c0,4.114-3.56,4.428-6.725,4.428h-1.971V30.728z M171.643,58.214
		c-0.941,3.454-5.347,3.533-8.51,3.533h-2.444v-2.335V51.85h2.135c3.479,0,9.012-0.074,9.012,4.912
		C171.836,57.306,171.767,57.784,171.643,58.214"/>
</g>
</svg>
